<svg xmlns="http://www.w3.org/2000/svg" width="256" height="256" viewBox="0 0 100 100"><rect width="100" height="100" rx="50" fill="#000000"></rect><path d="M15.61 58.41L15.20 55.23L9.75 55.23L8.24 58.41L3.82 58.41L12.86 41.35L16.63 41.35L19.78 58.41L15.61 58.41ZM14.04 46.17L11.25 52.05L14.79 52.05L14.04 46.17ZM22.54 45.73L26.13 45.72L25.87 47.25Q27.39 45.44 29.53 45.49L29.53 45.49Q31.29 45.52 32.15 46.79Q33.01 48.07 32.78 50.43L32.78 50.43L31.44 58.41L27.58 58.41L28.92 50.41Q28.97 50.00 28.95 49.66L28.95 49.66Q28.87 48.55 27.63 48.55L27.63 48.55Q26.62 48.52 25.77 49.45L25.77 49.45L24.19 58.41L20.33 58.41L22.54 45.73ZM40.81 54.78L40.81 54.78Q40.96 54.01 39.61 53.62L39.61 53.62L38.78 53.41Q36.74 52.87 35.79 51.90Q34.84 50.92 34.90 49.59L34.90 49.59Q34.96 47.76 36.52 46.62Q38.09 45.48 40.34 45.50L40.34 45.50Q42.58 45.52 43.96 46.64Q45.35 47.75 45.38 49.64L45.38 49.64L41.53 49.62Q41.58 48.12 40.21 48.12L40.21 48.12Q39.62 48.12 39.12 48.47Q38.62 48.82 38.52 49.39L38.52 49.39Q38.32 50.34 40.20 50.69L40.20 50.69Q41.83 51.08 42.72 51.59Q43.61 52.10 44.08 52.85Q44.54 53.60 44.51 54.65L44.51 54.65Q44.47 55.80 43.76 56.70Q43.04 57.60 41.69 58.14Q40.34 58.68 38.76 58.65L38.76 58.65Q37.38 58.64 36.21 58.07Q35.03 57.51 34.37 56.54Q33.71 55.58 33.68 54.32L33.68 54.32L37.27 54.35Q37.29 56.03 38.96 56.01L38.96 56.01Q39.67 56.01 40.17 55.69Q40.68 55.37 40.81 54.78ZM56.56 45.73L57.19 53.20L59.73 45.73L63.51 45.73L58.41 58.41L55.16 58.41L54.44 50.94L51.10 58.41L47.83 58.41L47.12 45.73L50.74 45.73L50.63 53.28L53.87 45.73L56.56 45.73ZM69.24 58.65L69.03 58.65Q67.33 58.64 66.00 57.84Q64.67 57.05 63.99 55.64Q63.31 54.23 63.45 52.53L63.45 52.53L63.48 52.20Q63.80 49.07 65.66 47.25Q67.51 45.43 70.21 45.50L70.21 45.50Q71.84 45.52 73.00 46.33Q74.16 47.13 74.70 48.54Q75.24 49.95 75.05 51.71L75.05 51.71L74.83 53.32L67.28 53.32Q67.30 54.31 67.84 54.93Q68.38 55.55 69.41 55.59L69.41 55.59Q71.09 55.64 72.42 54.30L72.42 54.30L74.04 56.44Q73.33 57.46 72.04 58.04Q70.76 58.62 69.24 58.65L69.24 58.65ZM69.96 48.53L69.96 48.53Q69.14 48.51 68.54 49.05Q67.94 49.59 67.49 50.85L67.49 50.85L71.35 50.85L71.42 50.51Q71.49 50.10 71.44 49.74L71.44 49.74Q71.24 48.57 69.96 48.53ZM85.17 45.63L84.67 49.31Q84.05 49.21 83.47 49.19L83.47 49.19Q81.74 49.14 80.83 50.39L80.83 50.39L79.40 58.41L75.54 58.41L77.74 45.73L81.34 45.72L81.05 47.39Q82.29 45.46 83.98 45.46L83.98 45.46Q84.46 45.46 85.17 45.63L85.17 45.63ZM91.61 54.78L91.61 54.78Q91.76 54.01 90.41 53.62L90.41 53.62L89.58 53.41Q87.54 52.87 86.59 51.90Q85.64 50.92 85.70 49.59L85.70 49.59Q85.76 47.76 87.32 46.62Q88.89 45.48 91.14 45.50L91.14 45.50Q93.38 45.52 94.77 46.64Q96.15 47.75 96.18 49.64L96.18 49.64L92.33 49.62Q92.38 48.12 91.01 48.12L91.01 48.12Q90.42 48.12 89.92 48.47Q89.42 48.82 89.32 49.39L89.32 49.39Q89.12 50.34 91.00 50.69L91.00 50.69Q92.63 51.08 93.52 51.59Q94.41 52.10 94.88 52.85Q95.35 53.60 95.31 54.65L95.31 54.65Q95.28 55.80 94.56 56.70Q93.85 57.60 92.49 58.14Q91.14 58.68 89.56 58.65L89.56 58.65Q88.19 58.64 87.01 58.07Q85.83 57.51 85.17 56.54Q84.51 55.58 84.48 54.32L84.48 54.32L88.07 54.35Q88.09 56.03 89.76 56.01L89.76 56.01Q90.47 56.01 90.97 55.69Q91.48 55.37 91.61 54.78Z" fill="#fff"></path></svg>